<svg width="32" height="32" viewBox="0 0 32 32" fill="none" xmlns="http://www.w3.org/2000/svg">
<g clip-path="url(#clip0_1:14272)">
<path d="M13.5748 1.46438C13.4579 1.34813 13.2973 1.28125 13.1323 1.28125C12.9679 1.28125 12.8067 1.34813 12.6904 1.46438C12.5742 1.58063 12.5073 1.74187 12.5073 1.90625C12.5073 2.07063 12.5742 2.23188 12.6904 2.34812C12.8067 2.46438 12.9679 2.53125 13.1323 2.53125C13.2973 2.53125 13.4579 2.46438 13.5748 2.34812C13.6911 2.23188 13.7573 2.07063 13.7573 1.90625C13.7573 1.74187 13.6911 1.58063 13.5748 1.46438Z" fill="#FFC726"/>
<path d="M22.0598 11.6766L21.542 9.05084C21.3309 7.97985 20.8107 7.00629 20.0376 6.23548L19.1522 5.35255V1.90625C19.1522 1.56106 18.8724 1.28125 18.5272 1.28125C18.182 1.28125 17.9022 1.56106 17.9022 1.90625V5.61192C17.9022 5.77798 17.9683 5.93723 18.0859 6.05448L19.155 7.12054C19.7513 7.71529 20.1527 8.46635 20.3157 9.29259L20.8335 11.9184C20.8537 12.0209 20.8323 12.1248 20.7732 12.211C20.7142 12.2972 20.6249 12.3547 20.522 12.3728C20.323 12.4083 20.1287 12.2815 20.0805 12.0848L19.8129 10.9936C19.7186 10.6091 19.365 10.3643 18.9719 10.412C18.5789 10.4595 18.2937 10.7813 18.2937 11.1771V16.2609C18.2937 16.4616 18.1304 16.6248 17.9298 16.6248C17.7454 16.6248 17.5929 16.4868 17.5694 16.3088V13.6541C17.5694 13.3089 17.2896 13.0291 16.9444 13.0291C16.9438 13.0291 16.9432 13.0291 16.9427 13.0291C16.9421 13.0291 16.9415 13.0291 16.9409 13.0291C16.5957 13.0291 16.3159 13.3089 16.3159 13.6541V16.2609C16.3159 16.295 16.3174 16.3288 16.3194 16.3623V17.1949C16.3194 17.3955 16.1562 17.5587 15.9555 17.5587C15.7549 17.5587 15.5917 17.3955 15.5917 17.1949V16.3619C15.5937 16.3284 15.5952 16.2949 15.5952 16.2609V13.6541C15.5952 13.3089 15.3154 13.0291 14.9702 13.0291C14.9696 13.0291 14.969 13.0291 14.9684 13.0291C14.9679 13.0291 14.9672 13.0291 14.9667 13.0291C14.6215 13.0291 14.3417 13.3089 14.3417 13.6541V16.3086C14.3182 16.4868 14.1657 16.6249 13.9812 16.6249C13.7806 16.6249 13.6174 16.4616 13.6174 16.261V15.3286C13.6194 15.2952 13.6209 15.2616 13.6209 15.2277V13.6541C13.6209 13.3089 13.3411 13.0291 12.9959 13.0291C12.9953 13.0291 12.9947 13.0291 12.9941 13.0291C12.9936 13.0291 12.9929 13.0291 12.9924 13.0291C12.6472 13.0291 12.3674 13.3089 12.3674 13.6541V15.2753C12.3439 15.4534 12.1914 15.5916 12.0069 15.5916C11.8063 15.5916 11.6431 15.4283 11.6431 15.2277V13.0383V11.555V9.73222C11.6431 8.6026 12.0836 7.54116 12.8835 6.74354L13.5745 6.05454C13.6921 5.93729 13.7582 5.77804 13.7582 5.61198V4.13505C13.7582 3.78987 13.4784 3.51005 13.1332 3.51005C12.788 3.51005 12.5082 3.78987 12.5082 4.13505V5.35255L12.0009 5.85836C10.9641 6.89223 10.3931 8.26797 10.3931 9.73215V11.5549V13.0382V15.2276C10.3931 16.1175 11.1171 16.8415 12.0069 16.8415C12.1616 16.8415 12.3111 16.8192 12.4529 16.7783C12.6691 17.4151 13.2722 17.8747 13.9812 17.8747C14.1481 17.8747 14.3091 17.8493 14.4606 17.8021C14.701 18.3918 15.2803 18.8087 15.9554 18.8087C16.6305 18.8087 17.21 18.3919 17.4505 17.8021C17.602 17.8494 17.763 17.8748 17.9298 17.8748C18.8197 17.8748 19.5437 17.1508 19.5437 16.2609V13.3495C19.8838 13.578 20.3085 13.6797 20.7392 13.6039C21.1755 13.527 21.5538 13.2832 21.8043 12.9176C22.0548 12.5521 22.1455 12.1114 22.0598 11.6766Z" fill="#FFC726"/>
<path d="M15.5671 24.325C15.4905 24.1923 15.397 24.0735 15.2899 23.9698C15.733 23.4641 15.8293 22.7122 15.4749 22.0983C15.3917 21.9542 15.2894 21.8277 15.173 21.7202C15.3038 21.5522 15.401 21.3582 15.4578 21.1463C15.5694 20.7298 15.5121 20.295 15.2965 19.9216C14.959 19.337 14.3085 19.0438 13.6777 19.1303C13.6422 18.9738 13.5831 18.8218 13.5005 18.6788C13.285 18.3055 12.937 18.0385 12.5206 17.9269C12.1042 17.8153 11.6693 17.8725 11.2959 18.0882L8.77455 19.5438C8.80236 19.1351 8.67824 18.7165 8.39711 18.3815C8.11224 18.042 7.71205 17.8362 7.27023 17.802C6.82867 17.7682 6.40136 17.9097 6.06767 18.2013L4.05255 19.9627C3.23061 20.6811 2.64761 21.6183 2.36655 22.6732L2.04467 23.8815L0.31261 24.8815C0.013672 25.054 -0.0887655 25.4363 0.0838595 25.7352C0.19961 25.9357 0.409672 26.0478 0.625672 26.0478C0.731672 26.0478 0.839172 26.0208 0.937609 25.964L2.89436 24.8342C3.03817 24.7512 3.14305 24.6143 3.1858 24.4539L3.57448 22.995C3.7913 22.1812 4.24111 21.458 4.87523 20.9038L6.89036 19.1424C6.96905 19.0736 7.06955 19.0402 7.17392 19.0483C7.27811 19.0563 7.37242 19.1048 7.43961 19.1849C7.5698 19.34 7.55717 19.5712 7.41098 19.7113L6.59973 20.4887C6.31386 20.7625 6.27886 21.1911 6.51648 21.5078C6.75417 21.8245 7.17548 21.9107 7.5183 21.7126L11.921 19.1707C12.0051 19.1221 12.1032 19.1092 12.1971 19.1343C12.291 19.1595 12.3695 19.2197 12.4181 19.3039C12.4667 19.3881 12.4796 19.4862 12.4545 19.58C12.4325 19.6622 12.3824 19.7313 12.314 19.7802L10.0255 21.1014C9.72655 21.274 9.62411 21.6562 9.79673 21.9552C9.79705 21.9557 9.79736 21.9561 9.79767 21.9566C9.79799 21.9571 9.79817 21.9577 9.79848 21.9582C9.97105 22.2571 10.3532 22.3595 10.6522 22.1869L12.9099 20.8835C12.9393 20.8665 12.9678 20.8484 12.9959 20.8298L13.717 20.4135C13.8907 20.3132 14.1137 20.3729 14.2141 20.5467C14.3144 20.7205 14.2547 20.9435 14.0809 21.0438L13.3595 21.4603C13.3295 21.4753 13.2997 21.4908 13.2704 21.5078L11.0127 22.8112C10.7137 22.9838 10.6113 23.366 10.7839 23.665C10.8074 23.7054 10.836 23.7435 10.8677 23.7778C10.9876 23.9083 11.1552 23.9806 11.3275 23.9806C11.4335 23.9806 11.541 23.9536 11.6394 23.8968L13.9382 22.5695C14.1042 22.5007 14.3001 22.5637 14.3924 22.7235C14.4927 22.8972 14.433 23.1202 14.2592 23.2206L13.4521 23.6866C13.422 23.7016 13.392 23.7173 13.3626 23.7342L11.9998 24.521C11.7009 24.6936 11.5984 25.0758 11.771 25.3748C11.8823 25.5666 12.0925 25.6904 12.3146 25.6904C12.4206 25.6904 12.5281 25.6634 12.6265 25.6066L14.0307 24.7959C14.1044 24.7653 14.1854 24.7594 14.2637 24.7804C14.3576 24.8056 14.436 24.8658 14.4847 24.95C14.585 25.1237 14.5252 25.3467 14.3515 25.4471L12.3484 26.6035L9.59223 28.1948C8.61392 28.7597 7.47442 28.9088 6.38373 28.6149L5.44155 28.361C5.28111 28.3177 5.11023 28.3402 4.96642 28.4232L3.00967 29.553C2.71073 29.7255 2.6083 30.1078 2.78092 30.4067C2.89667 30.6072 3.10673 30.7193 3.32273 30.7193C3.42873 30.7193 3.53623 30.6923 3.63467 30.6355L5.36673 29.6355L6.05842 29.8219C7.47211 30.2028 8.94911 30.0095 10.2172 29.2774L11.7956 28.3661C11.7956 28.3661 11.7957 28.3661 11.7957 28.366L12.9734 27.6861L13.0803 27.6243L14.9764 26.5296C15.7471 26.0847 16.012 25.0957 15.5671 24.325Z" fill="#FFC726"/>
<path d="M31.6874 24.8811L29.9553 23.8811L29.7709 23.1888C29.394 21.774 28.488 20.5916 27.22 19.8595L24.4638 18.2681L22.4608 17.1117C22.0874 16.8961 21.6525 16.8389 21.2362 16.9505C20.8198 17.062 20.4717 17.3291 20.2562 17.7024C20.179 17.8361 20.1237 17.9766 20.0882 18.1195C19.8478 18.0712 19.5978 18.0782 19.3542 18.1436C18.9378 18.2551 18.5897 18.5222 18.3742 18.8955C18.2917 19.0385 18.2326 19.1905 18.1971 19.3469C17.5663 19.2605 16.9158 19.5538 16.5783 20.1383C16.2408 20.7228 16.312 21.4328 16.7024 21.9359C16.5846 22.0449 16.4825 22.1721 16.4 22.315C15.955 23.0857 16.22 24.0747 16.9907 24.5196L19.512 25.9754C19.1442 26.1557 18.8436 26.4726 18.694 26.8835C18.5425 27.2999 18.5643 27.7493 18.7557 28.1491C18.947 28.5488 19.2833 28.8478 19.7027 28.9909L22.2356 29.8554C23.2688 30.2081 24.372 30.2443 25.426 29.9603L26.6333 29.6349L28.3654 30.6349C28.4638 30.6917 28.5713 30.7188 28.6773 30.7187C28.8933 30.7187 29.1034 30.6066 29.2191 30.4061C29.3918 30.1072 29.2893 29.725 28.9904 29.5524L27.0336 28.4226C26.8898 28.3396 26.7189 28.3171 26.5585 28.3605L25.1008 28.7533C24.2877 28.9725 23.4365 28.9445 22.6393 28.6724L20.1064 27.8079C20.0075 27.7741 19.9282 27.7036 19.8831 27.6094C19.838 27.5151 19.8328 27.4091 19.8686 27.311C19.9378 27.1207 20.1444 27.0161 20.3388 27.0726L21.4176 27.3865C21.7978 27.4973 22.1864 27.3132 22.3418 26.949C22.4972 26.5849 22.3612 26.177 22.0183 25.979L17.6157 23.4371C17.4419 23.3368 17.3822 23.1138 17.4825 22.94C17.5311 22.8558 17.6095 22.7956 17.7034 22.7705C17.7818 22.7495 17.8628 22.7553 17.9364 22.7859L20.2355 24.1133C20.3339 24.1701 20.4413 24.1971 20.5474 24.1971C20.7195 24.1971 20.887 24.125 21.0068 23.9946C21.0388 23.9603 21.0675 23.9221 21.091 23.8815C21.2637 23.5825 21.1612 23.2003 20.8623 23.0277L18.6047 21.7243C18.5752 21.7073 18.5452 21.6916 18.515 21.6765L17.794 21.2603C17.6203 21.16 17.5605 20.937 17.6609 20.7632C17.7095 20.679 17.7879 20.6188 17.8818 20.5936C17.9758 20.5685 18.0738 20.5815 18.1579 20.63L18.879 21.0463C18.907 21.065 18.9356 21.083 18.965 21.1L21.2226 22.4035C21.321 22.4603 21.4285 22.4873 21.5345 22.4873C21.7067 22.4873 21.8742 22.4151 21.994 22.2847C22.026 22.2504 22.0545 22.2122 22.0782 22.1716C22.2508 21.8727 22.1483 21.4905 21.8494 21.3179L19.5608 19.9966C19.4925 19.9477 19.4425 19.8786 19.4204 19.7965C19.3953 19.7026 19.4082 19.6045 19.4568 19.5203C19.5054 19.4361 19.5838 19.3759 19.6778 19.3508C19.7716 19.3256 19.8697 19.3385 19.9539 19.3871L20.7613 19.8533C20.7892 19.8718 20.8177 19.8898 20.847 19.9068L22.2098 20.6936C22.3083 20.7505 22.4157 20.7775 22.5218 20.7775C22.6938 20.7775 22.8614 20.7053 22.9812 20.575C23.0132 20.5405 23.0417 20.5024 23.0653 20.4618C23.238 20.1629 23.1355 19.7806 22.8366 19.6081L21.4326 18.7975C21.29 18.6881 21.2467 18.487 21.3388 18.3272C21.3875 18.243 21.4659 18.1828 21.5598 18.1576C21.6538 18.1326 21.7517 18.1454 21.8359 18.194L23.732 19.2888L23.839 19.3505L25.0167 20.0305C25.0167 20.0305 25.0167 20.0305 25.0167 20.0305L26.5951 20.9418C27.5735 21.5067 28.2723 22.4189 28.5631 23.5105L28.8144 24.4533C28.8571 24.6138 28.962 24.7506 29.1058 24.8336L31.0626 25.9634C31.161 26.0202 31.2685 26.0472 31.3745 26.0472C31.5905 26.0472 31.8006 25.9351 31.9163 25.7346C32.0888 25.436 31.9863 25.0537 31.6874 24.8811Z" fill="#FFC726"/>
</g>
<defs>
<clipPath id="clip0_1:14272">
<rect width="32" height="32" fill="white"/>
</clipPath>
</defs>
</svg>
