<svg width="17" height="17" viewBox="0 0 17 17" fill="none" xmlns="http://www.w3.org/2000/svg">
<path fill-rule="evenodd" clip-rule="evenodd" d="M10.6913 10.0619C9.74035 11.1809 8.40935 11.8639 6.94535 11.9819C6.79435 11.9949 6.64235 11.9999 6.49335 11.9999C3.65335 11.9999 1.24835 9.78091 1.01835 6.94591C0.899349 5.48191 1.35835 4.05791 2.30935 2.93891C3.26035 1.81991 4.59035 1.13691 6.05435 1.01891C6.20635 1.00591 6.35835 0.999909 6.50735 0.999909C9.34735 0.999909 11.7523 3.21991 11.9823 6.05491C12.1013 7.51891 11.6423 8.94191 10.6913 10.0619ZM16.6463 15.9399L11.4353 10.7289C12.5233 9.45791 13.1253 7.77291 12.9793 5.97391C12.7023 2.57491 9.85835 -0.00109126 6.50735 -9.12617e-05C6.33135 -9.12617e-05 6.15235 0.00690874 5.97435 0.0219087C2.39635 0.312909 -0.268651 3.44891 0.0213486 7.02691C0.297349 10.4259 3.14135 12.9999 6.49335 12.9999C6.66935 12.9999 6.84735 12.9939 7.02635 12.9789C8.44735 12.8639 9.71935 12.2939 10.7243 11.4319L15.9393 16.6469L16.6463 15.9399Z" fill="#1C1819"/>
</svg>
